<?xml version="1.0" encoding="UTF-8" standalone="no"?>
<!-- Generator: Adobe Illustrator 27.4.0, SVG Export Plug-In . SVG Version: 6.00 Build 0)  -->

<svg
   version="1.1"
   id="Camada_1"
   x="0px"
   y="0px"
   viewBox="0 0 440 440.00001"
   xml:space="preserve"
   sodipodi:docname="logo sg svg_Prancheta 2.svg"
   width="440"
   height="440"
   inkscape:version="1.1.2 (0a00cf5339, 2022-02-04)"
   xmlns:inkscape="http://www.inkscape.org/namespaces/inkscape"
   xmlns:sodipodi="http://sodipodi.sourceforge.net/DTD/sodipodi-0.dtd"
   xmlns="http://www.w3.org/2000/svg"
   xmlns:svg="http://www.w3.org/2000/svg"><defs
   id="defs31" /><sodipodi:namedview
   id="namedview29"
   pagecolor="#ffffff"
   bordercolor="#666666"
   borderopacity="1.0"
   inkscape:pageshadow="2"
   inkscape:pageopacity="0.0"
   inkscape:pagecheckerboard="0"
   showgrid="false"
   inkscape:zoom="1.2676897"
   inkscape:cx="99.393408"
   inkscape:cy="218.90215"
   inkscape:window-width="1866"
   inkscape:window-height="1016"
   inkscape:window-x="54"
   inkscape:window-y="27"
   inkscape:window-maximized="1"
   inkscape:current-layer="Camada_1"
   fit-margin-top="10"
   fit-margin-left="10"
   fit-margin-right="10"
   fit-margin-bottom="10"
   width="440px" />
<style
   type="text/css"
   id="style2">
	.st0{fill:#009ECF;}
	.st1{fill:#00466E;}
</style>












<rect
   style="fill:#ffffff;stroke-width:0.800651"
   id="rect143"
   width="420"
   height="420"
   x="10"
   y="10"
   rx="40" /><path
   class="st0"
   d="m 87.568944,96.909153 c -8.29999,15.599997 -11.79999,40.899997 -10.79999,70.799997 0.5,-16.8 4.7,-33.4 12.39999,-48.3 38.799996,-63.999987 190.099996,-33.299997 305.399996,1.1 1.2,0.4 2,0 2.2,0 -37.3,-20 -87.5,-41.699997 -126.5,-50.699987 -97,-22.600003 -162.6,-10.8 -182.699996,27.09999 z"
   id="path4" /><path
   class="st1"
   d="m 397.16894,107.90915 c -6.8,-4.6 -13.9,-8.599997 -21.4,-12.099997 -40.3,-21.99999 -82.8,-39.69999 -126.8,-52.699993 -31.1,-9.3 -63.6,-13.500001 -96,-12.4 -48.5,2.5 -90.499986,22.3 -102.399991,53.099993 -35.8,92.399997 36.899995,201.099997 40.999995,205.899997 -7.1,-19.7 -12.59999,-40 -16.5,-60.6 -11.89999,-69 -56.599996,-224.4999901 191.499996,-168.299987 40.4,9.1 92.2,31.69999 130.6,52.399987 v 0 c 0,-0.5 0,-4.8 0,-5.3 z"
   id="path6" /><path
   class="st1"
   d="m 240.86894,245.80915 c 0.2,9 -1.4,17.9 -4.7,26.2 -2.8,7.1 -7.4,13.4 -13.2,18.3 -6.2,5.1 -13.4,8.8 -21.2,10.9 -9.3,2.6 -18.9,3.8 -28.5,3.7 -21.3,0.5 -42.4,-3.9 -61.79999,-12.8 4.4,-10.9 8.3,-22.1 11.6,-33.4 0.4,-1.5 0.8,-2.9 1.4,-4.4 l 17.99999,4.5 7,1.6 7.5,1.5 7.1,1.1 c 2,0.3 3.9,0.5 5.9,0.5 2.7,0 5.3,0 7.9,-0.3 2.3,-0.1 4.5,-0.6 6.7,-1.4 1.8,-0.6 3.4,-1.7 4.7,-3.1 1.2,-1.6 1.9,-3.5 1.7,-5.5 0,-2.9 -1.5,-5.6 -4,-7.2 -3.1,-2.1 -6.4,-3.9 -10,-5.2 -4.3,-1.6 -8.6,-3 -13.1,-4.1 -4.7,-1.3 -9.1,-2.6 -13.2,-4 -5.6,-1.7 -10.9,-4.2 -15.9,-7.2 -4.7,-3 -8.9,-6.7 -12.39999,-10.9 -3.6,-4.2 -6.4,-9.1 -8.3,-14.3 -2.1,-5.6 -3.1,-11.6 -3,-17.6 0,-36.6 21.99999,-54.9 65.99999,-54.9 20.1,0 39.9,4.6 57.9,13.4 l -13.2,36.8 -18.7,-4.7 c -4.5,-1.2 -8.1,-2.1 -10.9,-2.6 -2.7,-0.6 -4.9,-0.9 -6.2,-1.1 -1.7,-0.1 -3.4,-0.1 -5.1,0 h -8.1 c -2.9,-0.1 -5.7,0.4 -8.3,1.6 -2.1,1.5 -3.2,4.1 -2.9,6.7 0,5 4.4,8.9 13.2,11.5 18,3.4 34.9,10.9 49.4,22.1 10.7,8.5 16.9,21.4 16.8,35"
   id="path8" /><path
   class="st1"
   d="m 376.26894,178.40915 c -10.8,-4 -22.2,-6.3 -33.7,-7 -5.6,-0.1 -11.1,1.2 -16,3.7 -4.5,2.4 -8.5,5.8 -11.6,9.8 -3.2,4.2 -5.6,9 -7.1,14.2 -1.6,5.4 -2.4,10.9 -2.4,16.5 -0.1,6 0.8,11.9 2.7,17.6 1.6,5.2 4.2,10.1 7.6,14.4 3.2,4 7.2,7.2 11.8,9.6 4.6,2.4 9.8,3.7 15.1,3.6 3.3,0 6.6,-0.3 9.8,-0.7 v -40.1 l 42.6,-4.9 v 77 c -18.6,8.4 -38.8,12.8 -59.2,12.8 -22.9,0.3 -44.9,-9.3 -60.3,-26.2 -16.4,-17.1 -25.4,-40.1 -24.9,-63.8 -0.4,-23.2 8.7,-45.6 25.4,-61.8 15.5,-16.3 37.1,-25.5 59.6,-25.3 19.7,-0.2 39.2,4 57,12.4 z"
   id="path10" /><g
   aria-label="DESK"
   transform="matrix(1.0082856,0,0,0.99178248,440.57272,-94.771357)"
   id="text3928"
   style="font-size:119.979px;line-height:1.25;fill:#00466e;stroke-width:1.24977"><path
     d="m -371.91982,436.29525 v 53.36956 h 8.08452 q 13.8257,0 21.09006,-6.85427 7.32293,-6.85426 7.32293,-19.91838 0,-13.00554 -7.26435,-19.80123 -7.26435,-6.79568 -21.14864,-6.79568 z m -22.55465,-17.0478 h 23.7849 q 19.91839,0 29.64325,2.87059 9.78344,2.81201 16.75487,9.6077 6.15127,5.91693 9.13903,13.64995 2.98776,7.73302 2.98776,17.51647 0,9.90061 -2.98776,17.69221 -2.98776,7.73302 -9.13903,13.64996 -7.03001,6.79568 -16.87204,9.66627 -9.84203,2.81201 -29.52608,2.81201 h -23.7849 z"
     style="font-weight:bold"
     id="path568" /><path
     d="m -294.88253,419.24745 h 60.86825 v 17.0478 h -38.31361 v 16.28621 h 36.02885 v 17.0478 h -36.02885 v 20.03555 h 39.60245 v 17.0478 h -62.15709 z"
     style="font-weight:bold"
     id="path570" /><path
     d="m -152.05598,422.00088 v 18.51238 q -7.20577,-3.22209 -14.06003,-4.86243 -6.85427,-1.64034 -12.94696,-1.64034 -8.08452,0 -11.95103,2.22618 -3.86651,2.22617 -3.86651,6.91285 0,3.51501 2.57767,5.50685 2.63626,1.93325 9.49053,3.33926 l 9.60769,1.93325 q 14.58729,2.92918 20.73856,8.90469 6.15127,5.97552 6.15127,16.98922 0,14.47012 -8.61178,21.55872 -8.55319,7.03002 -26.18682,7.03002 -8.31885,0 -16.69629,-1.58175 -8.37744,-1.58176 -16.75488,-4.68668 v -19.03964 q 8.37744,4.45235 16.16904,6.7371 7.85019,2.22618 15.11454,2.22618 7.38152,0 11.30662,-2.46051 3.92509,-2.46051 3.92509,-7.03002 0,-4.10084 -2.69484,-6.32702 -2.63626,-2.22617 -10.60361,-3.98368 l -8.72894,-1.93325 q -13.12271,-2.81201 -19.21539,-8.96327 -6.0341,-6.15127 -6.0341,-16.57913 0,-13.06412 8.43602,-20.09414 8.43603,-7.03002 24.25357,-7.03002 7.20577,0 14.82162,1.11308 7.61586,1.05451 15.75896,3.2221 z"
     style="font-weight:bold"
     id="path572" /><path
     d="m -126.51357,419.24745 h 22.55465 v 31.92801 l 32.513844,-31.92801 h 26.18682 l -42.12153,41.41853 46.45671,46.04663 h -28.23725 l -34.798594,-34.4471 v 34.4471 h -22.55465 z"
     style="font-weight:bold"
     id="path574" /></g></svg>
